{"title":"Nebraska 2013 DVDSCR XviD-WHOCARES","uid":9567766,"size":863288508,"categoryP":"video","categoryS":"movies","magnet":"?xt=urn:btih:3381011d70e2357b94c35317d2aa1261b67fc50b&amp;dn=Nebraska+2013+DVDSCR+XviD-WHOCARES&amp;tr=udp%3A%2F%2Ftracker.openbittorrent.com%3A80&amp;tr=udp%3A%2F%2Fopen.demonii.com%3A1337&amp;tr=udp%3A%2F%2Ftracker.coppersurfer.tk%3A6969&amp;tr=udp%3A%2F%2Fexodus.desync.com%3A6969","seeders":3,"leechers":0,"uploader":"HeroMaster","files":-1,"time":1391552511,"description":"::::::::: WHOCARES PRESENTS :::::::::\n\n\n:::: Nebraska 2013 DVDSCR XviD-WHOCARES ::::\n\n &lt;a href=&quot;\nhttp://www.imdb.com/title/tt1821549/&quot; rel=&quot;nofollow&quot; target=&quot;_NEW&quot;&gt;\nhttp://www.imdb.com/title/tt1821549/&lt;/a&gt;\n\n\nSynopis:\n\n\nAn aging, booze-addled father makes the trip from Montana to Nebraska with \nhis estranged son in order to claim a million-dollar Mega Sweepstakes \nMarketing prize. \n\n\nFile size                                : 810 MiB\nDuration                                 : 1h 54mn\nOverall bit rate                         : 986 Kbps\nWriting library                          : VirtualDubMod build 2542/release\n\nVideo\nID                                       : 0\nFormat                                   : MPEG-4 Visual\nFormat profile                           : Simple@L3\nFormat settings, BVOP                    : No\nFormat settings, QPel                    : No\nFormat settings, GMC                     : No warppoints\nFormat settings, Matrix                  : Default (H.263)\nCodec ID                                 : XVID\nCodec ID/Hint                            : XviD\nDuration                                 : 1h 54mn\nBit rate                                 : 849 Kbps\nWidth                                    : 720 pixels\nHeight                                   : 304 pixels\nDisplay aspect ratio                     : 2.35:1\nFrame rate                               : 23.976 fps\nColor space                              : YUV\nChroma subsampling                       : 4:2:0\nBit depth                                : 8 bits\nScan type                                : Progressive\nCompression mode                         : Lossy\nBits/(Pixel*Frame)                       : 0.162\nStream size                              : 697 MiB (86%)\nWriting library                          : XviD 1.1.2 (UTC 2006-11-01)\n\nAudio\nID                                       : 1\nFormat                                   : MPEG Audio\nFormat version                           : Version 1\nFormat profile                           : Layer 3\nMode                                     : Joint stereo\nMode extension                           : MS Stereo\nCodec ID                                 : 55\nCodec ID/Hint                            : MP3\nDuration                                 : 1h 54mn\nBit rate mode                            : Constant\nBit rate                                 : 128 Kbps\nChannel(s)                               : 2 channels\nSampling rate                            : 48.0 KHz\nCompression mode                         : Lossy\nStream size                              : 105 MiB (13%)\nAlignment                                : Aligned on interleaves\nInterleave, duration                     : 42 ms (1.00 video frame)\nInterleave, preload duration             : 504 ms\nWriting library                          : LAME3.99r\nEncoding settings                        : -m j -V 4 -q 2 -lowpass 17 -b 128\n\n\n::Greetz and Respect::\n\n\nALL CREDIT Goes to WHOCARES for Encoding and harks87 for Distribution.[/code]\n\n\n::Poster::\n\n &lt;a href=&quot;\nhttp://i.imgur.com/f3gb7FK.jpg&quot; rel=&quot;nofollow&quot; target=&quot;_NEW&quot;&gt;\nhttp://i.imgur.com/f3gb7FK.jpg&lt;/a&gt;\n\n\n::Screenshots::\n\n &lt;a href=&quot;\nhttp://i.imgur.com/o6Zwslk.jpg&quot; rel=&quot;nofollow&quot; target=&quot;_NEW&quot;&gt;\nhttp://i.imgur.com/o6Zwslk.jpg&lt;/a&gt;\n\n\nSEED AND ENJOY!","torrent":{"xt":"urn:btih:3381011d70e2357b94c35317d2aa1261b67fc50b","amp;dn":"Nebraska+2013+DVDSCR+XviD-WHOCARES","amp;tr":["udp%3A%2F%2Ftracker.openbittorrent.com%3A80","udp%3A%2F%2Fopen.demonii.com%3A1337","udp%3A%2F%2Ftracker.coppersurfer.tk%3A6969","udp%3A%2F%2Fexodus.desync.com%3A6969"],"infoHash":"3381011d70e2357b94c35317d2aa1261b67fc50b","infoHashBuffer":{"type":"Buffer","data":[51,129,1,29,112,226,53,123,148,195,83,23,210,170,18,97,182,127,197,11]},"announce":[],"urlList":[]}}